<?xml version="1.0" standalone="no"?><!DOCTYPE svg PUBLIC "-//W3C//DTD SVG 1.1//EN" "http://www.w3.org/Graphics/SVG/1.1/DTD/svg11.dtd"><svg t="1574756714028" class="icon" viewBox="0 0 1024 1024" version="1.1" xmlns="http://www.w3.org/2000/svg" p-id="6713" xmlns:xlink="http://www.w3.org/1999/xlink" width="128" height="128"><defs><style type="text/css"></style></defs><path d="M485.737412 191.849412H399.36v360.56847h86.377412c62.945882 0 109.025882-14.697412 137.938823-43.489882 28.310588-29.515294 42.465882-75.053176 42.465883-136.734118 0-63.247059-14.155294-109.447529-42.405647-137.637647-28.973176-28.672-75.053176-42.706824-137.938824-42.706823zM794.563765 4.577882H229.616941A115.049412 115.049412 0 0 0 114.808471 119.386353V849.317647a115.049412 115.049412 0 0 0 114.80847 114.808471h564.946824c45.176471 0 84.329412-26.443294 103.062588-64.451765H237.327059a43.068235 43.068235 0 0 1-43.008-42.947765v-54.332235c0-23.491765 19.275294-42.947765 43.008-42.947765h516.577882c85.534118 0 155.407059-69.872941 155.407059-155.467294V119.386353A115.169882 115.169882 0 0 0 794.624 4.577882zM687.465412 555.248941c-42.465882 44.875294-104.026353 67.343059-186.127059 67.343059H316.717176V121.675294h184.741648c82.040471 0 143.600941 22.528 186.066823 67.343059 40.237176 42.044235 60.837647 103.122824 60.837647 183.115294 0 79.390118-20.600471 140.348235-60.837647 183.115294z" p-id="6714" fill="#ffffff"></path></svg>