<?xml version="1.0" standalone="no"?><!DOCTYPE svg PUBLIC "-//W3C//DTD SVG 1.1//EN" "http://www.w3.org/Graphics/SVG/1.1/DTD/svg11.dtd"><svg class="icon" width="200px" height="200.00px" viewBox="0 0 1024 1024" version="1.1" xmlns="http://www.w3.org/2000/svg"><path fill="#ffffff" d="M886.847805 332.633866 657.505443 654.691863l-2.088568 4.224208-4.175089 2.103918-85.492116 31.653931-20.85191 8.448416 0-21.10262 2.105964-88.632643 0-4.223185 2.070148-4.207835 235.610112-326.282205 8.352225-12.670577 12.497639 8.447393 77.153194 59.08263 12.499685 8.43102L886.847805 332.633866zM813.336558 390.994042l-56.286957-40.946574L576.111668 598.405929l-1.50733 63.918775 61.799508-22.877033L813.336558 390.994042zM774.885827 325.56896l56.020898 40.759309 24.022113-33.741475-54.670134-41.85834L774.885827 325.56896zM271.781428 704.134949l-16.078187 0c-17.758456 0-32.155351-14.397918-32.155351-32.154327 0-17.758456 14.397918-32.156374 32.155351-32.156374l16.078187 0c17.757432 0 32.155351 14.396895 32.155351 32.156374C303.936779 689.73703 289.538861 704.134949 271.781428 704.134949zM271.781428 382.577349l-16.078187 0c-17.758456 0-32.155351-14.396895-32.155351-32.155351 0-17.757432 14.397918-32.155351 32.155351-32.155351l16.078187 0c17.757432 0 32.155351 14.397918 32.155351 32.155351C303.936779 368.181477 289.538861 382.577349 271.781428 382.577349zM271.781428 543.359218l-16.078187 0c-17.758456 0-32.155351-14.399965-32.155351-32.157397 0-17.758456 14.397918-32.155351 32.155351-32.155351l16.078187 0c17.757432 0 32.155351 14.395872 32.155351 32.155351C303.936779 528.95823 289.538861 543.359218 271.781428 543.359218zM384.324644 639.824247l64.310701 0c17.758456 0 32.155351 14.396895 32.155351 32.156374 0 17.756409-14.396895 32.154327-32.155351 32.154327l-64.310701 0c-17.758456 0-32.155351-14.397918-32.155351-32.154327C352.169293 654.222165 366.567211 639.824247 384.324644 639.824247zM352.169293 350.423021c0-17.757432 14.397918-32.155351 32.155351-32.155351l225.089501 0c17.757432 0 32.156374 14.397918 32.156374 32.155351 0 17.758456-14.398942 32.155351-32.156374 32.155351L384.324644 382.578372C366.567211 382.577349 352.169293 368.181477 352.169293 350.423021zM496.869906 543.359218 384.324644 543.359218c-17.758456 0-32.155351-14.399965-32.155351-32.157397 0-17.758456 14.397918-32.155351 32.155351-32.155351L496.869906 479.04647c17.757432 0 32.155351 14.395872 32.155351 32.155351C529.02628 528.95823 514.627339 543.359218 496.869906 543.359218zM762.152828 221.801619c-2.858094 0-5.51255-0.722454-8.03807-1.632173l0 1.632173-4.474918 0c-5.559623-9.577123-15.811104-16.078187-27.696806-16.078187L207.470727 205.723432c-17.758456 0-32.155351 14.397918-32.155351 32.155351l0 546.645055c0 17.757432 14.396895 32.155351 32.155351 32.155351l514.471284 0c17.772782 0 32.171724-14.397918 32.171724-32.155351L754.113735 607.668896l1.614777 0c-0.909719-2.543939-1.614777-5.198395-1.614777-8.03807 0-13.31526 10.786671-24.116257 24.116257-24.116257 13.313214 0 24.116257 10.80202 24.116257 24.116257 0 2.839675-0.708128 5.494131-1.617847 8.03807l1.617847 0 0 176.85494c0 44.385906-36.004005 80.388888-80.388888 80.388888L207.470727 864.912725c-44.403303 0-80.388888-36.002982-80.388888-80.388888L127.081839 237.878782c0-44.401256 35.986609-80.388888 80.388888-80.388888l514.488681 0c20.047592 0 38.183647 7.53665 52.203966 19.736507 4.114714 2.433422 7.506974 5.808286 9.578146 10.126638 0.659009 0.815575 1.538029 1.443885 2.165316 2.291183l-1.254573 0c0.909719 2.543939 1.616824 5.180999 1.616824 8.039093C786.269086 210.999598 775.467065 221.801619 762.152828 221.801619z" /></svg>